<svg width="138.118164" height="16.705688" viewBox="0 0 138.118 16.7057" fill="none" xmlns="http://www.w3.org/2000/svg" xmlns:xlink="http://www.w3.org/1999/xlink">
	<desc>
			Created with Pixso.
	</desc>
	<defs/>
	<path d="M32.18 6.16L20.53 6.16L20.11 6.49L20.11 16.66L23.32 16.66L23.32 12.83L23.61 12.55L32.18 12.55C34.35 12.55 35.35 11.97 35.35 10.5L35.35 8.16C35.35 6.73 34.35 6.16 32.18 6.16ZM32.18 9.92C32.18 10.61 31.73 10.73 30.68 10.73L23.67 10.73L23.33 10.44L23.33 8.29L23.63 8L30.71 8C31.71 8 32.21 8.12 32.21 8.81L32.21 9.91L32.18 9.92Z" fill="#FFFFFF" fill-opacity="1.000000" fill-rule="nonzero"/>
	<path d="M41.27 8.08L44.06 12.09L43.9 12.45L37.73 12.45L36.15 14.37L45.31 14.37L45.98 14.74L47.4 16.66L51.1 16.66L42.98 6.04L41.27 8.08Z" fill="#FFFFFF" fill-opacity="1.000000" fill-rule="nonzero"/>
	<path d="M78.05 14.62L78.05 11.76L78.38 11.47L84.59 11.47L84.59 9.68L74.76 9.68L74.76 16.66L89.25 16.66L89.25 14.86L78.43 14.86L78.05 14.62Z" fill="#FFFFFF" fill-opacity="1.000000" fill-rule="nonzero"/>
	<path d="M74.76 6.16L89.38 6.16L89.38 8.13L74.76 8.13L74.76 6.16Z" fill="#FFFFFF" fill-opacity="1.000000" fill-rule="evenodd"/>
	<path d="M58.48 8.04L70.26 8.04C70.1 6.57 69.14 6.16 66.81 6.16L58.35 6.16C55.69 6.16 54.85 6.65 54.85 8.65L54.85 14.21C54.85 16.17 55.67 16.7 58.35 16.7L66.8 16.7C69.17 16.7 70.09 16.25 70.17 14.74L58.47 14.74L58.13 14.41L58.13 8.29L58.48 8.04Z" fill="#FFFFFF" fill-opacity="1.000000" fill-rule="nonzero"/>
	<path d="M12.2 10.25L3.66 10.25L3.41 9.96L3.41 8.16L3.66 7.96L15.2 7.96L15.36 7.59C14.99 6.61 13.95 6.12 12.07 6.12L4.04 6.12C1.37 6.12 0.54 6.61 0.54 8.61L0.54 9.8C0.54 11.76 1.36 12.29 4.04 12.29L12.58 12.29L12.83 12.54L12.83 14.42L12.62 14.71L0.29 14.71C0.29 14.71 0 14.87 0 14.91C0.2 16.3 1.16 16.67 3.45 16.67L12.2 16.67C14.86 16.67 15.74 16.18 15.74 14.18L15.74 12.74C15.74 10.78 14.86 10.25 12.2 10.25Z" fill="#FFFFFF" fill-opacity="1.000000" fill-rule="nonzero"/>
	<path d="M98.59 6.12L93.75 6.12L93.5 6.61L98.84 10.45C99.84 9.88 100.96 9.31 102.13 8.73L98.59 6.12Z" fill="#FFFFFF" fill-opacity="1.000000" fill-rule="nonzero"/>
	<path d="M102.92 13.31L107.62 16.66L112.46 16.66L112.67 16.21L105.67 11.19C104.75 11.88 103.79 12.58 102.92 13.31L102.92 13.31Z" fill="#FFFFFF" fill-opacity="1.000000" fill-rule="nonzero"/>
	<path d="M97.88 16.66L93.5 16.66L93.13 16.09C96.09 13.27 109.34 1.27 138.11 0C138.11 0 114 0.8 97.88 16.66Z" fill="#B2B0B2" fill-opacity="1.000000" fill-rule="nonzero"/>
</svg>
